<svg width="20" height="20" xmlns="http://www.w3.org/2000/svg">
 <g id="Layer_1">
  <title>Layer 1</title>
  <g transform="rotate(-180 9.91658 9.29702)" stroke="null" id="svg_6">
   <path stroke="#000" id="svg_4" d="m10.95147,5.9437c-0.40884,-0.38329 -0.9199,-0.99655 -1.20097,-1.4565c-0.28108,-0.45995 -0.61326,-0.971 -1.32874,-1.99311c-0.71547,-1.02211 -1.60982,-0.68992 -2.09532,-0.10221c-0.4855,0.58771 0.51105,2.17198 0.71547,3.90956c0.05111,0.22997 0.20442,0.35774 -0.4344,0.35774c-0.63882,0 -1.09876,0.02555 -1.60982,0c-0.51105,-0.02555 -1.4565,0 -2.40195,-0.02555c-0.94545,-0.02555 -1.14987,0.74103 -1.14987,1.14987c0,0.40884 0.17887,0.971 0.84324,1.20097c0.25553,0 0.30663,0.28108 0.02555,0.33218c-0.68992,0.15332 -0.79213,1.02211 -0.71547,1.4565c0.07666,0.4344 0.86879,0.74103 1.09876,0.79213c0.22997,0.05111 0.20442,0.45995 0.05111,0.51105c-0.35774,0.15332 -0.63882,0.76658 -0.56216,1.30319c0.07666,0.53661 0.76658,0.99655 1.09876,1.02211c0.22997,-0.05111 0.20442,0.28108 0.02555,0.38329c-0.17887,0.10221 -0.35774,0.66437 -0.22997,1.14987c0.12776,0.4855 0.9199,0.81768 1.37984,0.79213c0.45995,-0.02555 4.62503,0.05111 5.31495,0.02555c0.68992,-0.02555 1.4054,-0.25553 1.83979,-0.4855c0.4344,-0.22997 0.971,-1.12432 1.12432,-1.14987c0.61326,0.02555 2.68303,-0.05111 2.68303,0.17887c0,0.22997 -0.01533,-8.41705 -0.046,-8.43749c-0.03066,-0.02044 -1.46161,0.00511 -2.3304,-0.02044c-0.53661,-0.02555 -1.68648,-0.51105 -2.09532,-0.89434z" opacity="NaN" fill="none"/>
   <rect stroke="#000" id="svg_5" height="10.11885" width="2.93856" y="5.81594" x="15.44873" fill="none"/>
  </g>
 </g>
</svg>